/* XPM */
static const char *Projeto_2Frm_WxBitmapButton1_XPM[]={
/* Projeto_2Frm_WxBitmapButton1 */
"32 32 452 2",
"      c None",
" 0    c #FFFEFF",
" 1    c #FFFFFF",
" 2    c #FFFFFD",
" 3    c #FBFFFF",
" 4    c #FEFEFC",
" 5    c #FEFFFF",
" 6    c #FDFFFE",
" 7    c #CADDEC",
" 8    c #A1BEDC",
" 9    c #89ACD2",
" a    c #7DA7CD",
" b    c #7AA5CF",
" c    c #76A2CF",
" d    c #6D9EC9",
" e    c #6B97C8",
" f    c #6B96C1",
" g    c #789CC0",
" h    c #9BB5C6",
" i    c #E6E2DF",
" j    c #F9F9F9",
" k    c #FCFFFF",
" l    c #FEFEFE",
" m    c #FFFDFE",
" n    c #FCFFFD",
" o    c #BDD1E9",
" p    c #91B5D5",
" q    c #7DA7D1",
" r    c #6A9ACB",
" s    c #558CC5",
" t    c #4781C0",
" u    c #3A7CB8",
" v    c #3273B3",
" w    c #3777B7",
" x    c #427FB8",
" y    c #4984BE",
" z    c #4C83BC",
" A    c #4E7CAD",
" B    c #7594B0",
" C    c #DBDAD8",
" D    c #F6F4F7",
" E    c #FFFEFC",
" F    c #FFFFFB",
" G    c #DAE8F1",
" H    c #9AB9D8",
" I    c #79A6CF",
" J    c #6092C5",
" K    c #3F7FBC",
" L    c #276BB2",
" M    c #1662AD",
" N    c #1058AC",
" O    c #0755A0",
" P    c #03519C",
" Q    c #04509C",
" R    c #05539E",
" S    c #1058A2",
" T    c #175FA9",
" U    c #216AAF",
" V    c #3174B8",
" W    c #3A78B5",
" X    c #3D6CA0",
" Y    c #8C9FB0",
" Z    c #E5E6EA",
" &    c #FBFAF8",
"0     c #C5D7ED",
"00    c #86ADD4",
"01    c #689ACB",
"02    c #4280BB",
"03    c #226AB6",
"04    c #0C5BA8",
"05    c #0254A6",
"06    c #0051A0",
"07    c #125AA4",
"08    c #9EBCD8",
"09    c #EDF4FA",
"0a    c #81A1C7",
"0b    c #014995",
"0c    c #014D99",
"0d    c #0F5BA9",
"0e    c #1C66AD",
"0f    c #296DB4",
"0g    c #255D98",
"0h    c #5A7996",
"0i    c #D3D3D5",
"0j    c #F7F7F5",
"0k    c #C1D7EE",
"0l    c #7FA6CD",
"0m    c #3475B5",
"0n    c #1460AB",
"0o    c #0156A7",
"0p    c #0153A7",
"0q    c #0053A3",
"0r    c #014E9E",
"0s    c #C0D0E7",
"0t    c #7EA1BF",
"0u    c #02468D",
"0v    c #004C98",
"0w    c #0250A2",
"0x    c #0956A8",
"0y    c #0D5FAB",
"0z    c #1765AF",
"0A    c #185693",
"0B    c #496686",
"0C    c #CDCBCC",
"0D    c #F7F7F7",
"0E    c #D6E4EF",
"0F    c #7EA8D0",
"0G    c #5C91C7",
"0H    c #2E73B8",
"0I    c #0C5DAC",
"0J    c #0153A5",
"0K    c #0252A7",
"0L    c #2063AA",
"0M    c #F1F2F6",
"0N    c #004185",
"0O    c #004995",
"0P    c #004F9C",
"0Q    c #0053A1",
"0R    c #0457A7",
"0S    c #0F5BA7",
"0T    c #084989",
"0U    c #586A7E",
"0V    c #D4D2D3",
"0W    c #FBFBFD",
"0X    c #8BB3D7",
"0Y    c #6194C9",
"0Z    c #3374B4",
"0&    c #0D5CAB",
"1     c #0353A8",
"10    c #0055A5",
"11    c #336DAC",
"12    c #003D7C",
"13    c #01488A",
"14    c #004D9B",
"15    c #0152A4",
"16    c #0052A8",
"17    c #0355A9",
"18    c #0957AA",
"19    c #0355A7",
"1a    c #093E72",
"1b    c #898987",
"1c    c #E4E6E5",
"1d    c #B0CCE4",
"1e    c #6498CA",
"1f    c #3D7ABB",
"1g    c #1260AB",
"1h    c #0254A8",
"1i    c #0054A5",
"1j    c #0253A5",
"1k    c #0052A2",
"1l    c #004C9A",
"1m    c #E0E7ED",
"1n    c #A0B2C6",
"1o    c #003E7B",
"1p    c #00488D",
"1q    c #0053A6",
"1r    c #0455A7",
"1s    c #0055A6",
"1t    c #014D98",
"1u    c #1D3E5F",
"1v    c #B0AEAF",
"1w    c #F5F5F3",
"1x    c #76A5CF",
"1y    c #5087BF",
"1z    c #1D67B2",
"1A    c #0356A4",
"1B    c #0452A4",
"1C    c #0052A4",
"1D    c #004D98",
"1E    c #2F6BA1",
"1F    c #E0E7EF",
"1G    c #BFCBD9",
"1H    c #003A74",
"1I    c #014083",
"1J    c #014991",
"1K    c #004F9E",
"1L    c #0151A6",
"1M    c #01386E",
"1N    c #646867",
"1O    c #DADCDB",
"1P    c #BFD4E7",
"1Q    c #5D91CA",
"1R    c #3374B6",
"1S    c #0A5BAC",
"1T    c #0154A4",
"1U    c #0051A5",
"1V    c #0054A7",
"1W    c #01509F",
"1X    c #004E99",
"1Y    c #004793",
"1Z    c #004183",
"1&    c #316191",
"2     c #205285",
"20    c #013972",
"21    c #00448B",
"22    c #004A95",
"23    c #014FA1",
"24    c #0156A6",
"25    c #004892",
"26    c #1E3348",
"27    c #ABABAB",
"28    c #F9FAF5",
"29    c #84ABD2",
"2a    c #4B86C0",
"2b    c #1E68B3",
"2c    c #0553A5",
"2d    c #0052A6",
"2e    c #0054A4",
"2f    c #00509F",
"2g    c #014689",
"2h    c #00407D",
"2i    c #003C7A",
"2j    c #003F7F",
"2k    c #004181",
"2l    c #0250A3",
"2m    c #0253A4",
"2n    c #0152A3",
"2o    c #062D56",
"2p    c #747371",
"2q    c #E3E5E2",
"2r    c #6193C4",
"2s    c #3A7BBB",
"2t    c #105DAB",
"2u    c #FEFEFF",
"2v    c #BFCFDF",
"2w    c #02478C",
"2x    c #004C97",
"2y    c #0051A1",
"2z    c #0052A3",
"2A    c #003263",
"2B    c #4B4B49",
"2C    c #CACACC",
"2D    c #518AC1",
"2E    c #2F72B6",
"2F    c #0A5BAA",
"2G    c #0151A8",
"2H    c #2F6EB1",
"2I    c #3E75AE",
"2J    c #BFCFDE",
"2K    c #004386",
"2L    c #024E9C",
"2M    c #023A77",
"2N    c #2E2F31",
"2O    c #B4B4B4",
"2P    c #4581BF",
"2Q    c #276DB2",
"2R    c #0556A8",
"2S    c #BDCDDA",
"2T    c #003F7D",
"2U    c #004992",
"2V    c #004E9D",
"2W    c #014286",
"2X    c #202020",
"2Y    c #A4A4A4",
"2Z    c #3F7BB9",
"2&    c #1E66B2",
"3     c #0051AA",
"30    c #00498E",
"31    c #C2CCD6",
"32    c #01458C",
"33    c #014E9C",
"34    c #00458A",
"35    c #161415",
"36    c #989898",
"37    c #3374B8",
"38    c #1A61AF",
"39    c #0053A8",
"3a    c #004FA0",
"3b    c #004A93",
"3c    c #BFCBD7",
"3d    c #003B75",
"3e    c #004588",
"3f    c #0051A2",
"3g    c #0153A9",
"3h    c #0053A4",
"3i    c #003F83",
"3j    c #131311",
"3k    c #959396",
"3l    c #2D72B3",
"3m    c #1662B0",
"3n    c #0354A6",
"3o    c #0050A1",
"3p    c #014A97",
"3q    c #02376D",
"3r    c #151716",
"3s    c #989896",
"3t    c #3374AE",
"3u    c #1A62AC",
"3v    c #0756A5",
"3w    c #014B94",
"3x    c #0053A9",
"3y    c #022D57",
"3z    c #A3A1A2",
"3A    c #4980B8",
"3B    c #1362AD",
"3C    c #0456A8",
"3D    c #0051A3",
"3E    c #014B96",
"3F    c #01478D",
"3G    c #00213F",
"3H    c #2F2F2F",
"3I    c #B5B5B5",
"3J    c #85A2C0",
"3K    c #0D5BA6",
"3L    c #023C7C",
"3M    c #031523",
"3N    c #4A484B",
"3O    c #CACBCD",
"3P    c #E3E4E6",
"3Q    c #13569C",
"3R    c #0050A2",
"3S    c #004E9B",
"3T    c #00498C",
"3U    c #002951",
"3V    c #0F1110",
"3W    c #767475",
"3X    c #E5E4E2",
"3Y    c #F9F9F7",
"3Z    c #547FAA",
"3&    c #004B97",
"4     c #003D78",
"40    c #00162B",
"41    c #2F2F31",
"42    c #AAACAB",
"43    c #FDFEFF",
"44    c #DADAD8",
"45    c #15528B",
"46    c #0251A0",
"47    c #004B96",
"48    c #024387",
"49    c #002343",
"4a    c #11100E",
"4b    c #676767",
"4c    c #F5F4F9",
"4d    c #8198AA",
"4e    c #064684",
"4f    c #00509E",
"4g    c #004B93",
"4h    c #BECCD5",
"4i    c #004389",
"4j    c #024C97",
"4k    c #004489",
"4l    c #012B55",
"4m    c #020F18",
"4n    c #3A3A3A",
"4o    c #AFAFAF",
"4p    c #F5F5F5",
"4q    c #FFFDFA",
"4r    c #E7E5E8",
"4s    c #516E8C",
"4t    c #02427F",
"4u    c #BECBDB",
"4v    c #004485",
"4w    c #004388",
"4x    c #022E5B",
"4y    c #011222",
"4z    c #252628",
"4A    c #E7E7E7",
"4B    c #FAFAFC",
"4C    c #D2D3D5",
"4D    c #43607E",
"4E    c #024079",
"4F    c #004C94",
"4G    c #6189BA",
"4H    c #00468C",
"4I    c #034081",
"4J    c #012B53",
"4K    c #021222",
"4L    c #747474",
"4M    c #D3D3D3",
"4N    c #FBFBF9",
"4O    c #F8F7F5",
"4P    c #D0CCCD",
"4Q    c #556775",
"4R    c #093967",
"4S    c #004387",
"4T    c #014993",
"4U    c #004D97",
"4V    c #00498D",
"4W    c #014284",
"4X    c #013F7C",
"4Y    c #003C75",
"4Z    c #023874",
"4&    c #003870",
"5     c #003B71",
"50    c #013C78",
"51    c #003F7C",
"52    c #003E79",
"53    c #00203F",
"54    c #040E18",
"55    c #252726",
"56    c #C9CDD0",
"57    c #F7F7F9",
"58    c #F6F7F9",
"59    c #898989",
"5a    c #1D3B57",
"5b    c #003360",
"5c    c #04428B",
"5d    c #00417D",
"5e    c #023D7F",
"5f    c #003D76",
"5g    c #003973",
"5h    c #013B6D",
"5i    c #003569",
"5j    c #002544",
"5k    c #001324",
"5l    c #101010",
"5m    c #FCFCFE",
"5n    c #E6E6E6",
"5o    c #B0AEB1",
"5p    c #666666",
"5q    c #1F3042",
"5r    c #052645",
"5s    c #002A52",
"5t    c #013162",
"5u    c #00356B",
"5v    c #00396E",
"5w    c #003466",
"5x    c #002C59",
"5y    c #03254A",
"5z    c #021A34",
"5A    c #02101D",
"5B    c #121013",
"5C    c #2D2F2E",
"5D    c #636768",
"5E    c #AEAEAE",
"5F    c #E5E7E6",
"5G    c #F4F6F5",
"5H    c #D9DADC",
"5I    c #AAAAAC",
"5J    c #747472",
"5K    c #49494B",
"5L    c #2E2E2C",
"5M    c #201E21",
"5N    c #131112",
"5O    c #141414",
"5P    c #1E1E1E",
"5Q    c #2B2F30",
"5R    c #484846",
"5S    c #747273",
"5T    c #ABAAA8",
"5U    c #D8DAD7",
"5V    c #CACBCF",
"5W    c #A4A3A1",
"5X    c #979998",
"5Y    c #939594",
"5Z    c #9B9798",
"5&    c #A0A4A7",
"6     c #B6B4B5",
"60    c #C9CBC8",
"61    c #E4E4E6",
"62    c #FAFAFA",
"   0 1 2 3 1 4 5 0 1 1 1 2 1 5 0 2 1 5 2 6 0 5 0 2 2 5 0 0 1   1",
" 1 1 5 0 2 1 2 1 1 5 7 8 9 a b c d e f g h i j 5 1 k l 1 4 5 1 m",
" 5 2 n 1 0 1 5 1 o p q r s t u v v w x y z A B C D 2 5 2 0 1 E 2",
" F 2 2 5 2 2 G H I J K L M N O P Q R S T U V W X Y Z & 5 m 1 1 5",
" 2 0 1 1 m0 000102030405060708 1090a0b0c R0d0e0f0g0h0i0j 5 1 0 2",
" 5 1 1 40k0l J0m0n0o0p0q0r0s 1 0 m 20t0u0v0w0x0y0z0A0B0C0D 2 1 0",
" 1 2 50E0F0G0H0I0J0K0J060L k l 2 1 50M0N0O0P0Q0R040S0T0U0V0W 2 2",
" l 1 m0X0Y0Z0&1 100K0J0611 5 2 1 5 6 012131415161718191a1b1c 1 1",
" 4 k1d1e1f1g1h161i0J1j1k1l1m 0 1 1 01n1o1p1l1q1q051r1s1t1u1v1w 1",
" 2 51x1y1z1A1B0J0J0J1C151D1E1F 6 n1G1H1I1J1K0w1L0q1h0J1L1M1N1O 0",
" 11P1Q1R1S1T1i1L1j1U1V1W1X1Y1Z1&2 201o212223061i1V1L241U25262728",
" 5292a2b2c1i1q1V2d2e152f0v1J2g2h2i2j2k0u1l2l2m2d1V0K1i2n0c2o2p2q",
" 12r2s2t0p0p1q1C1V1C23 5 2 22u 0 2 12v2w2x2y2z1h0J0p0J1U1X2A2B2C",
" 22D2E2F2d2G1s150J152l2H2I 1   1 5 22J2K1J2L1C1q0p0J1C1i2f2M2N2O",
" 12P2Q2R1j0p1C1V1i1k2n1l1p 1 1 5 0 12S2T2U0c2n0K1q15160J2V2W2X2Y",
" 52Z2&191i2d2e163 0q060r30 2 1 2 5 1312i32141k2d1q2d0J1L33343536",
" 237381i390J1C0p0p1i1C3a3b l 1 1 1 13c3d3e0v3f0J1T3g3h151t3i3j3k",
" 53l3m3n2d150J0J0p1i1C3o3b 1 1 1 1 13c3d3e0v3f0J2e1C1i1C3p3q3r3s",
" 23t3u3v1V0p2d0J0p1V0J3o3w 1 1 1 1 13c3d3e0v3f0J3x0K0q3f253y2X3z",
" 43A3B3C1V3h0p1q0J1V0J3D3E 1 1 1 1 13c3d3e0v3f0J1C2d2e333F3G3H3I",
" 53J3K190q1i1C150J1V0J3D3E 1 1 1 1 13c3d3e0v3f0J0p0p3D3w3L3M3N3O",
" 03P3Q0J1i3x1V2n0J1V0J3R3E 1 1 1 1 13c3d3e0v3f0J1j1C3S3T3U3V3W3X",
" 03Y3Z1W2z150p1i0J1V0J3R3E 1 1 1 1 13c3d3e0v3f0J0J3o3&4 4041423Y",
" 1434445462n1L1i0p1V0J3o3w 1 1 1 1 13c3d3e0v3f0J1k4748494a4b44 5",
" 2 14c4d4e4f2l1L2e3h1C1K4g2u 0 1 1 04h3d4i4j2y3f1D4k4l4m4n4o4p  ",
" 1 k4q4r4s4t0c2f150p2m1K25 22u 2 1 54u3d4v4j2V3E4w4x4y4z1b4A 1 1",
" 2 m 54B4C4D4E4F0P2f23 1 k 0 5 5 4 2 0 04G4H4k4I4J4K2X4L4M4N l 1",
" 5 5 2 54O4P4Q4R4S4T4U224V4W4X4Y4Z4&5 505152205354554L5657 2 1 1",
" 1 2 2 0 2580i595a5b2h5c2W1I5d5e5f4Y5g5h5i5j5k5l4n1b4M57 0 1 6 1",
" 1 1 1 1 1 25m5n5o5p5q5r5s5t5u5v5w5x5y5z5A5B5C5D5E5F4N 2 1 l 1 0",
" 52u 1 4 5 1 2 05G5H5I5J5K5L5M355N5O5P5Q5R5S5T5U4p 1 1 1 5 1 2 1",
" 2 2 1 1 1 1 1 5 2 13Y3X5V3I5W5X5Y5Z5&6 606162 1 5 1 0 1 5 1 l 2"};

