/* XPM */
static const char *Projeto_2Frm_WxStaticBitmap1_XPM[]={
/* Projeto_2Frm_WxStaticBitmap1 */
"40 40 275 2",
"      c None",
" 0    c #EAF6FB",
" 1    c #F1F9FD",
" 2    c #119BD7",
" 3    c #0C9AD7",
" 4    c #1EA1DA",
" 5    c #3DADDD",
" 6    c #6FBFE5",
" 7    c #9BD2ED",
" 8    c #E0F3F9",
" 9    c #F0F9FD",
" a    c #82C8E8",
" b    c #0088D0",
" c    c #9FD1EC",
" d    c #9FD3ED",
" e    c #008AD0",
" f    c #0196D5",
" g    c #0095D5",
" h    c #0094D4",
" i    c #0091D4",
" j    c #008ED2",
" k    c #0091D3",
" l    c #83C8E8",
" m    c #66BCE5",
" n    c #008DD1",
" o    c #008ED1",
" p    c #1D9ED8",
" q    c #0093D5",
" r    c #0397D6",
" s    c #0297D6",
" t    c #67BCE5",
" u    c #AEDCF1",
" v    c #0893D3",
" w    c #008DD2",
" x    c #0096D5",
" y    c #0090D3",
" z    c #58B7E2",
" A    c #DBF1F9",
" B    c #ADDCF1",
" C    c #7AC3E6",
" D    c #0087CF",
" E    c #0296D5",
" F    c #C0E3F4",
" G    c #7FC6E8",
" H    c #5AB4E1",
" I    c #1998D6",
" J    c #0292D4",
" K    c #5AB4E0",
" L    c #0089D0",
" M    c #72C3E6",
" N    c #CBE9F6",
" O    c #008BD1",
" P    c #7AC3E7",
" Q    c #DAEEF8",
" R    c #68BBE4",
" S    c #AEDBF0",
" T    c #0094D5",
" U    c #27A1DA",
" V    c #0084CE",
" W    c #AEDBF1",
" X    c #0892D4",
" Y    c #008BD0",
" Z    c #9CD4ED",
" &    c #ADDDF2",
"0     c #0892D3",
"00    c #FFFFFE",
"01    c #008FD3",
"02    c #ECF6FB",
"03    c #2CA0D8",
"04    c #0085CE",
"05    c #008CD1",
"06    c #0090D2",
"07    c #F0F9FC",
"08    c #0093D4",
"09    c #47ACDE",
"0a    c #C9E7F5",
"0b    c #D2EAF6",
"0c    c #D3EAF6",
"0d    c #D6ECF6",
"0e    c #A2D7EF",
"0f    c #1C9CD7",
"0g    c #62BDE4",
"0h    c #E0EFF8",
"0i    c #D6EBF7",
"0j    c #8ACDEB",
"0k    c #0594D5",
"0l    c #83C7E8",
"0m    c #0088CF",
"0n    c #B4DFF2",
"0o    c #F3F9FD",
"0p    c #0D96D5",
"0q    c #F7FBFD",
"0r    c #C7E7F5",
"0s    c #0192D3",
"0t    c #F2F9FC",
"0u    c #F4FAFD",
"0v    c #EFF7FC",
"0w    c #4FAEDF",
"0x    c #25A1DA",
"0y    c #F0F8FC",
"0z    c #F4F9FD",
"0A    c #ECF5FB",
"0B    c #2AA1D9",
"0C    c #55B5E1",
"0D    c #F5F9FC",
"0E    c #007CCB",
"0F    c #0089CF",
"0G    c #0079CA",
"0H    c #FCFEFE",
"0I    c #40AADC",
"0J    c #91CEEB",
"0K    c #BEE2F3",
"0L    c #007BCA",
"0M    c #0086CF",
"0N    c #0083CD",
"0O    c #FBFDFF",
"0P    c #199BD7",
"0Q    c #DAEFF8",
"0R    c #6EC3E7",
"0S    c #008ED3",
"0T    c #56B2E0",
"0U    c #EDF6FB",
"0V    c #0197D6",
"0W    c #0080CC",
"0X    c #43ADDE",
"0Y    c #7BC6E7",
"0Z    c #C9E6F5",
"0&    c #008AD1",
"1     c #6EBFE5",
"10    c #0696D5",
"11    c #239ED8",
"12    c #BFE5F4",
"13    c #84CBEA",
"14    c #42ABDE",
"15    c #E7F5FA",
"16    c #0087D0",
"17    c #F7FCFE",
"18    c #3FAEDE",
"19    c #3DACDE",
"1a    c #008FD2",
"1b    c #7EC4E7",
"1c    c #D2EBF7",
"1d    c #279ED9",
"1e    c #A3D9EF",
"1f    c #A6D7EF",
"1g    c #21A1D9",
"1h    c #F3FBFD",
"1i    c #0893D4",
"1j    c #1DA1D9",
"1k    c #0082CD",
"1l    c #F5FBFE",
"1m    c #58B6E2",
"1n    c #69BDE4",
"1o    c #D3EBF7",
"1p    c #0096D6",
"1q    c #20A0D9",
"1r    c #A3D4ED",
"1s    c #A8D7EF",
"1t    c #0E9BD7",
"1u    c #1C9DD8",
"1v    c #F7FCFD",
"1w    c #1097D5",
"1x    c #D5EDF8",
"1y    c #66BDE5",
"1z    c #5CB7E2",
"1A    c #FAFDFE",
"1B    c #2BA4DB",
"1C    c #0092D4",
"1D    c #0F9BD7",
"1E    c #8DCDEB",
"1F    c #BDE0F2",
"1G    c #0996D5",
"1H    c #0F97D5",
"1I    c #C2E4F4",
"1J    c #80C7E8",
"1K    c #0092D3",
"1L    c #44AFDE",
"1M    c #E7F6FB",
"1N    c #1EA1D9",
"1O    c #0196D6",
"1P    c #34AADD",
"1Q    c #8ECBEA",
"1R    c #BBE1F3",
"1S    c #008CD2",
"1T    c #0894D4",
"1U    c #0F95D4",
"1V    c #B4DEF2",
"1W    c #8DCCEA",
"1X    c #33A8DC",
"1Y    c #ECF8FC",
"1Z    c #0492D3",
"1&    c #E2F3FA",
"2     c #48B2E0",
"20    c #7CC6E8",
"21    c #C1E5F5",
"22    c #1295D4",
"23    c #AFDAF0",
"24    c #9ED3EE",
"25    c #22A0D9",
"26    c #CFEBF7",
"27    c #6BBDE4",
"28    c #5DBAE3",
"29    c #D8EFF8",
"2a    c #008FD1",
"2b    c #1A9BD7",
"2c    c #A6D8EF",
"2d    c #A2D5EE",
"2e    c #229ED8",
"2f    c #0097D6",
"2g    c #D8EDF8",
"2h    c #6EBDE5",
"2i    c #5DB9E3",
"2j    c #D5EEF8",
"2k    c #0993D4",
"2l    c #21A2DA",
"2m    c #9ED4ED",
"2n    c #98D0EC",
"2o    c #007ECB",
"2p    c #1597D5",
"2q    c #C0E4F4",
"2r    c #82C6E8",
"2s    c #44B0E0",
"2t    c #F1FAFD",
"2u    c #0193D4",
"2v    c #E9F6FA",
"2w    c #F6FAFD",
"2x    c #F1F8FC",
"2y    c #F3F9FC",
"2z    c #F6FBFD",
"2A    c #C0E6F4",
"2B    c #83C7E9",
"2C    c #CCE8F5",
"2D    c #86C8E9",
"2E    c #3CAADD",
"2F    c #38A7DB",
"2G    c #60BBE4",
"2H    c #EDF5FA",
"2I    c #DCEEF8",
"2J    c #E1F0F9",
"2K    c #B1DDF1",
"2L    c #159BD7",
"2M    c #D8EDF7",
"2N    c #DFEFF8",
"2O    c #F1F7FC",
"2P    c #129AD6",
"2Q    c #B8DFF2",
"2R    c #EEF5FA",
"2S    c #DEEFF8",
"2T    c #CDE9F6",
"2U    c #42ABDD",
"2V    c #F7FBFE",
"2W    c #249ED7",
"2X    c #0083CE",
"2Y    c #0084CD",
"2Z    c #DCEFF8",
"2&    c #76C3E7",
"3     c #189CD7",
"30    c #5BB4E0",
"31    c #73C1E7",
"32    c #DDEFF9",
"33    c #F5FBFC",
"34    c #56B6E2",
"35    c #2CA3DA",
"36    c #F8FCFD",
"37    c #0C97D5",
"38    c #93CFEC",
"39    c #B9E0F2",
"3a    c #3FABDD",
"3b    c #84C8E8",
"3c    c #37A8DC",
"3d    c #E8F5FB",
"3e    c #0191D3",
"3f    c #D8EEF8",
"3g    c #D3EDF7",
"3h    c #9BD3ED",
"                             0       1 2 3 4 5 6 7 8                            ",
"                       9 a b c       d e f g h i j e k l 9                      ",
"                     m j n o         p q r r r r r s g j j t                    ",
"                 u v w x y z       A j f r r r r r r r r x w v B                ",
"               C D g s E w F       G j r r r r r r r r r r s g D C              ",
"             H b s r r g I         J g r r r r r r r r r r r r s b H            ",
"           K L r r r r j M       N O s r r r r r r r r r r r r r r L K          ",
"         P D r r r r f n Q       R y r r r r r r r r r r r r r r r r D P        ",
"       S D s r r r r T U         V s r r r r r r r r r r r r r r r r s D W      ",
"       X g r r r r r Y Z       & e r r r r r r r r r r r r r r r r r r g0 00    ",
"     t w r r r r r f0102      0304 b b05 h r r r r06 b b b b b b b b w g w t    ",
"  07 o x r r r r r0809        0a0b0c0d0e0f i r r y0g0h0b0b0b0b0b0c0i0j0k h o07  ",
"  0l j s r r r r r0m0n                  0o0p g s V0q                  0r06 j0l  ",
"   k g r r r r r x0s        0t0u0v        0w08 h0x        0y0z0A        0B08 k  ",
" 8 Y s r r r r r i0C      0D0E0F0G0H      0I T j0J      0K0L0M0N      0O0P g Y 8",
" 7 j r r r r r r V0Q      0R0S080T      0U050V0W        0X08 y0Y      0Z0& r j 7",
"1  i r r r r r g10        11 g b12      13 n0814      1508 x1617      18 k r i1 ",
"19 T r r r r r1a1b      1c0m0V L        1d g w1e      1f e h1g      1h1i x r T19",
"1j g r r r r r1k1l      1m k y1n      1o051p Y        1q q n1r      1s Y s r g1j",
"1t f r r r r T1u      1v1w g Y1x      1y j y1z      0Q01 x j1A      1B1C r r f1t",
"1D f r r r s j1E      1F e g1G        1H g j1I      1J w1K1L      1M j x r r f1t",
"1N g r r r1O L        1P1C j1Q      1R1S g1T        1U g051V      1W w r r r g1j",
"19 T r r r1C1X      1Y1Z x j1&      2  k j20      21 j g22        1G g r r r T19",
"1  i r r s n23      2405 T25         w x1a26      27011a28      29 e s r r r i 6",
" 7 j r r x2a        2b T052c      2d1S h2e         e2f O2g      2h y r r r r j 7",
" 8 Y s r y2i      2j o g2k1v      2l q e2m      2n2o042p        0F1O r r r s Y 8",
"   k g E n2q      2r j k2s      2t e x2u2v      2w2x2y2z      2A D r r r r g k  ",
"  2B j g0f         k g e2C      2D1a082E                      2F08 r r r s j0l  ",
"  07 j y2G2H2I2J2K w g2L2M2N2I2O2P g0F2Q      2R2M2I2I2I2S2T2U j r r r r x o07  ",
"     t j y D b D O s r g L D b D T g1G2V      2W04 b b b D L1K r r r r r w t    ",
"       X g r r r r r r r r r r r r k1m      1v2X r r r r r r r r r r r g X      ",
"       S D s r r r r r r r r r r r2Y2Z      2& y r r r r r r r r r r s D W      ",
"         P D r r r r r r r r r r g1u        3  g r r r r r r r r r r D P        ",
"          30 L r r r r r r r r r0131      3204 r r r r r r r r r r L30          ",
"             H b s r r r r r r r2X33      34 i r r r r r r r r s b H            ",
"               P16 g s r r r r h35      3637 g r r r r r r s g D C              ",
"                 u v w x r r r n38      390m r r r r r r x w v u                ",
"                     t j j g0V1k        3a1C r r r s g j j t                    ",
"                       93b0s D3c      3d1K T h i j e3e l 9                      ",
"                            3f3g      3h y1N 5 6 7 8                            "};

